<svg xmlns="http://www.w3.org/2000/svg" viewBox="0 0 1600 900" role="img" aria-labelledby="title desc">
  <title id="title">上海城市天际线封面图</title>
  <desc id="desc">上海外滩与浦东天际线的编辑风格封面图。</desc>
  <defs>
    <linearGradient id="sky" x1="0" y1="0" x2="1" y2="1">
      <stop offset="0" stop-color="#e8f1ec"/>
      <stop offset="0.52" stop-color="#f7efe1"/>
      <stop offset="1" stop-color="#d8e7ea"/>
    </linearGradient>
  </defs>
  <rect width="1600" height="900" fill="url(#sky)"/>
  <rect y="645" width="1600" height="255" fill="#2f6f73"/>
  <path d="M0 650 C220 610 360 690 540 650 C760 600 950 695 1160 650 C1340 615 1460 635 1600 600 V900 H0Z" fill="#27595d"/>
  <g fill="#1f2933">
    <rect x="120" y="470" width="70" height="180"/>
    <rect x="220" y="420" width="86" height="230"/>
    <rect x="340" y="500" width="58" height="150"/>
    <rect x="980" y="260" width="86" height="390"/>
    <rect x="1095" y="210" width="110" height="440"/>
    <rect x="1240" y="330" width="92" height="320"/>
    <rect x="1370" y="430" width="68" height="220"/>
  </g>
  <circle cx="1148" cy="180" r="42" fill="#d98245"/>
  <path d="M1150 210 V650" stroke="#1f2933" stroke-width="18"/>
  <path d="M1018 260 L1023 120 L1030 260" stroke="#1f2933" stroke-width="12" fill="none"/>
  <g fill="#fffdf8" opacity="0.72">
    <rect x="140" y="500" width="18" height="22"/>
    <rect x="248" y="460" width="18" height="22"/>
    <rect x="1125" y="260" width="20" height="24"/>
    <rect x="1165" y="320" width="20" height="24"/>
    <rect x="1270" y="390" width="20" height="24"/>
  </g>
</svg>

